<svg width="505" height="505" viewBox="0 0 505 505" fill="none" xmlns="http://www.w3.org/2000/svg">
<circle cx="252.5" cy="252.5" r="252.5" transform="rotate(-90 252.5 252.5)" fill="url(#paint0_radial)" fill-opacity="0.13"/>
<circle cx="228.5" cy="232.5" r="81.5" fill="#FFD600"/>
<circle cx="228.5" cy="232.5" r="81.5" fill="url(#paint1_linear)" fill-opacity="0.2"/>
<circle cx="228.5" cy="232.5" r="72.352" fill="white" fill-opacity="0.22"/>
<circle cx="228.5" cy="232.5" r="72.352" fill="url(#paint2_radial)" fill-opacity="0.8"/>
<circle cx="197.522" cy="211.501" r="19.3355" fill="white" fill-opacity="0.22"/>
<circle cx="192.116" cy="247.677" r="12.6824" fill="white" fill-opacity="0.22"/>
<circle cx="246.38" cy="227.926" r="9.56378" fill="white" fill-opacity="0.22"/>
<circle cx="216.857" cy="230.005" r="9.97959" fill="white" fill-opacity="0.22"/>
<circle cx="226.837" cy="203.393" r="4.9898" fill="white" fill-opacity="0.22"/>
<circle cx="226.286" cy="267.71" r="27.4234" transform="rotate(-150.954 226.286 267.71)" fill="white" fill-opacity="0.22"/>
<circle cx="181.661" cy="213.52" r="13.5643" transform="rotate(-150.954 181.661 213.52)" fill="white" fill-opacity="0.22"/>
<circle cx="219.698" cy="231.272" r="14.154" transform="rotate(-150.954 219.698 231.272)" fill="white" fill-opacity="0.22"/>
<circle cx="228.618" cy="230.123" r="14.154" transform="rotate(-150.954 228.618 230.123)" fill="white" fill-opacity="0.22"/>
<circle cx="228.618" cy="230.123" r="14.154" transform="rotate(-150.954 228.618 230.123)" fill="white" fill-opacity="0.22"/>
<circle cx="228.618" cy="230.123" r="14.154" transform="rotate(-150.954 228.618 230.123)" fill="white" fill-opacity="0.22"/>
<circle cx="243.893" cy="197.163" r="25.3105" transform="rotate(42.78 243.893 197.163)" fill="white" fill-opacity="0.22"/>
<circle cx="271.102" cy="264.444" r="12.5192" transform="rotate(42.78 271.102 264.444)" fill="white" fill-opacity="0.22"/>
<circle cx="221.729" cy="193.063" r="17.7559" transform="rotate(-108.174 221.729 193.063)" fill="white" fill-opacity="0.22"/>
<circle cx="269.347" cy="229.27" r="18.5279" transform="rotate(-108.174 269.347 229.27)" fill="white" fill-opacity="0.22"/>
<circle cx="189" cy="257.397" r="7.077" transform="rotate(-150.954 189 257.397)" fill="white" fill-opacity="0.22"/>
<path d="M273.275 332.13C280.947 335.5 293.976 336.477 299.531 336.544L296.837 352.115L268.558 352.308C246.042 343.358 236.143 330.057 234.008 324.526C242.102 314.298 263.684 327.919 273.275 332.13Z" fill="#C4C4C4"/>
<path d="M273.275 332.13C280.947 335.5 293.976 336.477 299.531 336.544L296.837 352.115L268.558 352.308C246.042 343.358 236.143 330.057 234.008 324.526C242.102 314.298 263.684 327.919 273.275 332.13Z" fill="url(#paint3_linear)"/>
<path d="M250.355 343.504C264.854 349.871 282.232 348.314 289.109 346.74L280.056 367.356C262.934 364.431 225.42 355.939 212.336 345.365C195.981 332.148 211.615 326.493 214.636 327.819L250.355 343.504Z" fill="#C4C4C4"/>
<path d="M250.355 343.504C264.854 349.871 282.232 348.314 289.109 346.74L280.056 367.356C262.934 364.431 225.42 355.939 212.336 345.365C195.981 332.148 211.615 326.493 214.636 327.819L250.355 343.504Z" fill="url(#paint4_linear)"/>
<path d="M199.314 343.43C206.688 346.164 250.726 356.608 271.823 361.489L265.191 376.592C255.146 377.586 229.126 375.888 205.405 361.148C181.684 346.408 191.46 343.194 199.314 343.43Z" fill="#C4C4C4"/>
<path d="M199.314 343.43C206.688 346.164 250.726 356.608 271.823 361.489L265.191 376.592C255.146 377.586 229.126 375.888 205.405 361.148C181.684 346.408 191.46 343.194 199.314 343.43Z" fill="url(#paint5_linear)"/>
<path d="M380.047 249.935C390.498 254.525 385.839 271.275 382.203 279.076C368.906 316.907 311.655 364.657 284.691 383.804C249.196 409.004 207.559 376.957 191.177 357.783C199.736 348.138 213.413 353.915 219.182 358.01C231.537 365.813 248.519 369.902 255.466 370.97C302.711 348.552 306.684 319.087 302.765 307.157C275.16 304.584 246.734 298.137 252.644 290.012C258.553 281.888 279.476 280.807 287.259 283.594C292.294 285.397 315.4 276.768 326.014 272.631C333.586 268.169 366.983 244.198 380.047 249.935Z" fill="#C4C4C4"/>
<path d="M380.047 249.935C390.498 254.525 385.839 271.275 382.203 279.076C368.906 316.907 311.655 364.657 284.691 383.804C249.196 409.004 207.559 376.957 191.177 357.783C199.736 348.138 213.413 353.915 219.182 358.01C231.537 365.813 248.519 369.902 255.466 370.97C302.711 348.552 306.684 319.087 302.765 307.157C275.16 304.584 246.734 298.137 252.644 290.012C258.553 281.888 279.476 280.807 287.259 283.594C292.294 285.397 315.4 276.768 326.014 272.631C333.586 268.169 366.983 244.198 380.047 249.935Z" fill="url(#paint6_linear)"/>
<circle cx="53.5" cy="238.5" r="26.5" fill="#FFD100"/>
<circle cx="79.5" cy="192.5" r="13.5" fill="#FFD100"/>
<circle cx="78" cy="275" r="7" fill="#FFD100"/>
<line x1="89" y1="239" x2="188" y2="239" stroke="#893976" stroke-width="4" stroke-linecap="round" stroke-dasharray="11 11"/>
<defs>
<radialGradient id="paint0_radial" cx="0" cy="0" r="1" gradientUnits="userSpaceOnUse" gradientTransform="translate(-9 307.5) rotate(16.8451) scale(376.14)">
<stop stop-color="#893976"/>
<stop offset="1" stop-opacity="0"/>
</radialGradient>
<linearGradient id="paint1_linear" x1="290.249" y1="289.259" x2="174.652" y2="163.474" gradientUnits="userSpaceOnUse">
<stop offset="0.0001" stop-color="#FF2E00"/>
<stop offset="1" stop-color="#FFD600"/>
</linearGradient>
<radialGradient id="paint2_radial" cx="0" cy="0" r="1" gradientUnits="userSpaceOnUse" gradientTransform="translate(228.5 229.173) rotate(90) scale(75.6786)">
<stop stop-color="white"/>
<stop offset="1" stop-color="white" stop-opacity="0"/>
</radialGradient>
<linearGradient id="paint3_linear" x1="261.745" y1="322.013" x2="283.863" y2="356.379" gradientUnits="userSpaceOnUse">
<stop stop-color="#893976"/>
<stop offset="1" stop-color="#58275B"/>
</linearGradient>
<linearGradient id="paint4_linear" x1="253.247" y1="337.782" x2="268.034" y2="379.765" gradientUnits="userSpaceOnUse">
<stop stop-color="#893976"/>
<stop offset="1" stop-color="#58275B"/>
</linearGradient>
<linearGradient id="paint5_linear" x1="209.227" y1="347.425" x2="256.774" y2="385.779" gradientUnits="userSpaceOnUse">
<stop stop-color="#893976"/>
<stop offset="1" stop-color="#58275B"/>
</linearGradient>
<linearGradient id="paint6_linear" x1="355.385" y1="340.632" x2="224.036" y2="282.954" gradientUnits="userSpaceOnUse">
<stop stop-color="#893976"/>
<stop offset="1" stop-color="#893976"/>
</linearGradient>
</defs>
</svg>
